<?xml version="1.0" encoding="UTF-8"?>
<svg id="katman_1" data-name="katman 1" xmlns="http://www.w3.org/2000/svg" version="1.1" xmlns:xlink="http://www.w3.org/1999/xlink" viewBox="0 0 841.89 595.28">
  <defs>
    <style>
      .cls-1 {
        fill: url(#Adsız_degrade_3);
      }

      .cls-1, .cls-2, .cls-3, .cls-4, .cls-5 {
        stroke-width: 0px;
      }

      .cls-1, .cls-4, .cls-5 {
        fill-rule: evenodd;
      }

      .cls-2 {
        fill: #1a1a1a;
      }

      .cls-3 {
        fill: #63f655;
      }

      .cls-4 {
        fill: url(#Adsız_degrade_2);
        fill-opacity: .4;
      }

      .cls-5 {
        fill: #00e0d9;
      }
    </style>
    <linearGradient id="Adsız_degrade_3" data-name="Adsız degrade 3" x1="233.54" y1="189.83" x2="66.3" y2="380.65" gradientTransform="translate(24.94 588.36) scale(1 -1)" gradientUnits="userSpaceOnUse">
      <stop offset="0" stop-color="#62f755"/>
      <stop offset="1" stop-color="#8ff986" stop-opacity="0"/>
    </linearGradient>
    <linearGradient id="Adsız_degrade_2" data-name="Adsız degrade 2" x1="259.97" y1="246.05" x2="146.68" y2="290.26" gradientTransform="translate(24.94 588.36) scale(1 -1)" gradientUnits="userSpaceOnUse">
      <stop offset="0" stop-color="#000" stop-opacity=".9"/>
      <stop offset="1" stop-color="#1a1a1a" stop-opacity="0"/>
    </linearGradient>
  </defs>
  <path class="cls-5" d="M74.41,235.08c0-18.13,14.73-32.81,32.91-32.81h125.07c18.18,0,32.92,14.69,32.92,32.81v106.02c0,18.74-23.8,26.88-35.34,12.08l-36.08-46.27v56.1c0,16.31-13.26,29.53-29.63,29.53h-56.94c-18.18,0-32.91-14.69-32.91-32.81v-124.66ZM107.32,228.52c-3.63,0-6.57,2.94-6.58,6.56h0v124.66c0,3.63,2.94,6.56,6.58,6.56h57.93c1.81,0,2.3-1.47,2.3-3.28v-75.23c0-18.76,23.8-26.88,35.34-12.09l36.08,46.27v-86.9c0-3.63.34-6.56-3.29-6.56H107.32Z"/>
  <path class="cls-1" d="M74.41,235.08c0-18.13,14.73-32.81,32.91-32.81h125.07c18.18,0,32.92,14.69,32.92,32.81v106.02c0,18.74-23.8,26.88-35.34,12.08l-36.08-46.27v56.1c0,16.31-13.26,29.53-29.63,29.53h-56.94c-18.18,0-32.91-14.69-32.91-32.81v-124.66ZM107.32,228.52c-3.63,0-6.57,2.94-6.58,6.56h0v124.66c0,3.63,2.94,6.56,6.58,6.56h57.93c1.81,0,2.3-1.47,2.3-3.28v-75.23c0-18.76,23.8-26.88,35.34-12.09l36.08,46.27v-86.9c0-3.63.34-6.56-3.29-6.56H107.32Z"/>
  <path class="cls-4" d="M74.41,235.08c0-18.13,14.73-32.81,32.91-32.81h125.07c18.18,0,32.92,14.69,32.92,32.81v106.02c0,18.74-23.8,26.88-35.34,12.08l-36.08-46.27v56.1c0,16.31-13.26,29.53-29.63,29.53h-56.94c-18.18,0-32.91-14.69-32.91-32.81v-124.66ZM107.32,228.52c-3.63,0-6.57,2.94-6.58,6.56h0v124.66c0,3.63,2.94,6.56,6.58,6.56h57.93c1.81,0,2.3-1.47,2.3-3.28v-75.23c0-18.76,23.8-26.88,35.34-12.09l36.08,46.27v-86.9c0-3.63.34-6.56-3.29-6.56H107.32Z"/>
  <path class="cls-3" d="M232.39,202.27c18.18,0,32.91,14.69,32.91,32.81v106.02c0,18.74-23.8,26.88-35.34,12.08l-36.08-46.27v56.1c0,16.31-13.26,29.53-29.62,29.53,1.81,0,3.29-1.46,3.3-3.27,0,0,0,0,0-.01v-101.48c0-18.74,23.79-26.88,35.34-12.08l36.08,46.26v-113.15c0-3.63-2.96-6.57-6.58-6.56h0"/>
  <path class="cls-2" d="M401.75,252.78v54.58l-49.92-54.58h-25.99v89.27h23.7v-58.66l54.38,58.66h21.54v-89.27h-23.7ZM469.39,322.15v-15.81h53.05v-19.01h-53.05v-14.66h64.35v-19.9h-88.53v89.27h89.86v-19.89h-65.69ZM598.05,344.98c33.32,0,54.98-17.34,54.98-47.57s-21.66-47.57-54.98-47.57-54.86,17.34-54.86,47.57,21.54,47.57,54.86,47.57M598.05,323.81c-18.53,0-29.95-9.57-29.95-26.4s11.55-26.4,29.95-26.4,29.95,9.57,29.95,26.4-11.43,26.4-29.95,26.4M743.87,252.78v54.58l-49.93-54.58h-25.99v89.27h23.7v-58.66l54.37,58.66h21.54v-89.27h-23.7Z"/>
</svg>