<svg version="1.1" id="Layer_1" xmlns="http://www.w3.org/2000/svg" xmlns:xlink="http://www.w3.org/1999/xlink" x="0px" y="0px"
	 width="100%" viewBox="0 0 544 160" enable-background="new 0 0 544 160" xml:space="preserve">
<path fill="#000000" opacity="1.000000" stroke="none" 
	d="
M139.156784,152.210052 
	C126.805489,149.064438 116.910606,142.965240 112.796227,130.906525 
	C107.080414,114.154251 108.165115,97.787407 120.601868,84.114738 
	C132.101746,71.472031 146.911774,67.895279 163.479446,71.364311 
	C167.359604,72.176758 170.763641,73.934715 172.256256,77.960739 
	C172.899765,79.696449 174.145218,80.595528 175.659653,81.385506 
	C182.991898,85.210320 188.402573,90.871864 191.788971,98.657722 
	C192.691589,90.501289 192.544266,90.491180 186.793610,84.993179 
	C181.848221,80.265038 181.860443,73.587616 181.953674,67.668312 
	C182.255814,48.485462 184.982788,48.228325 199.747147,45.732658 
	C216.682831,42.869965 233.764999,41.429630 250.955856,43.808907 
	C259.203217,44.950371 266.810883,47.502407 273.174530,53.272633 
	C280.438507,45.378624 290.236969,45.437931 299.536224,44.386463 
	C316.784790,42.436165 334.068970,41.288807 351.176392,45.643188 
	C353.746735,46.297432 356.277985,47.197956 358.724792,48.228115 
	C367.733490,52.021000 370.232330,55.336052 373.510162,67.750107 
	C378.401917,62.081268 383.129852,56.620876 389.232208,52.512539 
	C399.229950,45.781712 410.153137,42.404831 422.158661,42.645206 
	C425.461731,42.711338 428.245697,42.249107 430.802521,39.821007 
	C433.372009,37.380917 436.841919,37.115314 440.238770,37.757244 
	C443.014404,38.281776 445.770203,38.974010 448.478546,39.780697 
	C458.024231,42.623951 461.643799,47.895687 459.985229,57.778736 
	C457.722443,71.262085 453.560303,84.287727 449.155853,97.199303 
	C447.347107,102.501564 441.868561,105.162956 435.627747,104.081749 
	C431.880707,103.432571 428.190186,102.256866 424.595154,100.977951 
	C419.236206,99.071526 417.046204,94.798759 416.692932,89.368584 
	C416.555817,87.260796 417.262573,85.067085 416.144897,83.048927 
	C408.328247,84.584084 401.808167,94.568932 403.474487,102.348122 
	C405.076324,109.826393 412.116699,113.568413 421.037506,112.066628 
	C426.674408,111.117683 431.994415,109.468849 437.194214,107.106102 
	C443.850464,104.081558 449.264893,105.764748 453.078217,111.976562 
	C456.547241,117.627502 458.304962,123.916550 458.097137,130.538651 
	C457.952301,135.154770 456.358673,139.454483 452.352844,142.249283 
	C434.662842,154.591370 403.948242,158.710312 384.240723,145.655045 
	C370.265594,136.397202 364.289520,123.003578 363.608765,106.756599 
	C363.518127,104.593994 363.571289,102.425591 363.509857,100.261246 
	C363.502228,99.991814 363.198486,99.730797 362.755646,99.026398 
	C357.443207,104.357109 352.233612,109.652512 346.071930,113.860985 
	C339.749481,118.179268 333.732849,123.014297 325.913025,124.475555 
	C323.684967,124.891914 323.035919,126.465424 323.073486,128.525238 
	C323.140381,132.190796 323.212097,135.856979 323.212463,139.522903 
	C323.213135,146.769241 319.913086,151.097427 312.750763,152.626602 
	C308.865479,153.456116 304.848694,154.007568 300.883453,154.056992 
	C291.554932,154.173279 287.319275,149.930038 285.750031,139.121689 
	C283.670959,124.801590 282.393097,110.400856 282.725708,95.921478 
	C282.835419,91.147263 282.673706,87.024506 277.214813,85.264305 
	C276.188171,84.933258 275.401154,83.859154 274.339630,82.994408 
	C272.242462,84.422966 271.704895,86.717987 270.250549,88.830933 
	C285.459534,98.065140 282.669128,112.354614 281.094482,126.058807 
	C280.399963,132.103104 278.528412,138.024017 277.032532,143.960983 
	C275.597015,149.658386 271.944305,153.044479 266.109619,154.303497 
	C261.823547,155.228394 257.532776,155.413589 253.199539,155.331161 
	C245.157196,155.178192 240.740158,151.022278 240.774689,142.928970 
	C240.795135,138.139465 241.744202,133.355362 242.247803,128.565903 
	C242.511292,126.060028 243.177368,123.244026 239.101974,123.376572 
	C235.972748,123.478355 231.990952,122.163521 232.305832,127.797928 
	C232.519394,131.619507 232.280777,135.464127 232.388702,139.294373 
	C232.541153,144.704895 229.925018,148.218674 224.984909,149.902557 
	C219.588928,151.741821 213.996216,152.658722 208.260300,152.217651 
	C201.311722,151.683334 197.889145,148.545044 196.605820,141.567947 
	C195.709442,136.694519 194.856506,131.813095 193.804581,125.931076 
	C183.209290,151.368362 163.338684,156.002655 139.156784,152.210052 
M270.444946,135.009750 
	C272.751221,126.978104 274.055328,118.800987 274.350189,110.435913 
	C274.703796,100.404877 270.293304,95.575928 260.313232,95.126137 
	C256.769318,94.966408 253.119476,95.723618 249.282486,94.513451 
	C250.298035,91.680946 252.567490,90.743851 254.302734,89.386467 
	C260.307434,84.689293 265.215271,79.168747 268.316162,72.109993 
	C271.485016,64.896584 269.706604,59.084988 262.838562,55.122730 
	C259.035675,52.928802 254.862518,51.830273 250.519455,51.270069 
	C232.822144,48.987309 215.298752,50.796860 197.855362,53.676178 
	C190.834259,54.835133 188.783707,58.025097 189.508224,65.269882 
	C189.706741,67.255112 190.066742,69.223808 190.331497,71.202911 
	C190.751968,74.345894 192.360123,76.242523 195.688217,75.580994 
	C199.743759,74.774864 200.132812,77.073563 200.103485,80.126892 
	C200.055481,85.125984 200.190155,90.126953 200.133240,95.125824 
	C199.983139,108.310799 201.778214,121.326393 203.540405,134.339508 
	C203.889160,136.915009 204.217194,140.011337 207.620148,140.479736 
	C212.456848,141.145447 217.283508,140.785782 221.843567,138.854431 
	C224.650177,137.665741 225.654587,135.325867 225.449875,132.361557 
	C225.105911,127.380516 225.130997,122.345734 224.372818,117.430428 
	C223.758667,113.448807 225.599121,112.170792 228.863998,112.042976 
	C234.521011,111.821510 240.189362,111.907120 245.849915,111.752739 
	C249.356750,111.657104 250.608337,113.317146 250.324341,116.665771 
	C249.888687,121.802605 250.187973,127.079880 249.114807,132.069443 
	C246.239777,145.436371 250.763107,144.075256 261.420532,143.517776 
	C266.108124,143.272583 269.805298,141.219177 270.444946,135.009750 
M284.082520,75.714073 
	C289.098755,74.999779 290.274811,77.547501 290.230713,82.104362 
	C290.060303,99.723068 290.916626,117.293831 293.447845,134.761154 
	C294.361115,141.063278 296.283844,142.927414 302.564178,142.568863 
	C305.210571,142.417770 307.855194,141.962082 310.461609,141.447388 
	C314.370483,140.675491 316.004242,138.204590 315.633026,134.224945 
	C315.247406,130.090927 314.636780,125.918823 314.853821,121.801819 
	C315.162079,115.954231 312.577209,110.183037 314.178619,104.119232 
	C316.241302,104.977348 316.810211,106.639069 317.798187,107.907555 
	C321.917603,113.196526 324.705780,113.793221 330.611969,110.682030 
	C335.936951,107.876968 340.857880,104.446953 345.524231,100.693100 
	C353.831512,94.010262 360.428040,86.027031 363.812775,75.685013 
	C366.765594,66.662743 364.911713,59.976780 357.973083,56.206421 
	C354.323425,54.223259 350.435669,52.791695 346.270264,52.070606 
	C326.982941,48.731693 307.827118,50.563404 288.706818,53.451935 
	C284.925873,54.023121 280.623505,54.772373 279.935944,59.479729 
	C279.111755,65.122787 278.182159,71.050400 284.082520,75.714073 
M440.286346,92.008293 
	C442.222168,90.661819 442.776581,88.491440 443.393524,86.450470 
	C445.993561,77.848640 448.620422,69.250992 450.985382,60.583023 
	C453.941864,49.747124 452.029510,47.016171 440.833893,45.410500 
	C439.848907,45.269234 438.840729,45.255474 437.842804,45.246727 
	C436.419464,45.234249 435.007660,45.680969 434.501099,47.017323 
	C433.177948,50.508034 430.410919,50.350956 427.494720,50.200817 
	C419.109802,49.769104 410.790375,50.144192 402.998840,53.663204 
	C384.014557,62.237419 373.666962,77.193092 371.509644,97.706223 
	C369.206757,119.603600 383.007843,137.895798 404.135864,141.635895 
	C417.641907,144.026703 430.350769,141.251984 442.422882,135.384064 
	C451.494141,130.974762 452.449219,126.799530 447.740265,117.673119 
	C445.689392,113.698273 443.256836,112.382889 438.944061,114.527298 
	C431.194641,118.380486 422.875397,119.980896 414.231354,119.359886 
	C406.512238,118.805328 400.521973,115.393547 397.431549,107.977592 
	C391.054047,92.673553 399.881958,74.429222 415.839050,70.116692 
	C419.115723,69.231140 423.171234,67.064148 425.848267,69.722862 
	C428.507538,72.363960 426.101562,76.303589 425.296448,79.542061 
	C423.238647,87.819443 424.253876,89.612122 432.715546,91.887184 
	C435.010681,92.504280 437.257324,92.898430 440.286346,92.008293 
M120.529411,125.847382 
	C122.520470,129.767258 125.181557,133.116028 128.780411,135.699539 
	C140.666382,144.232117 162.306107,144.329834 174.204391,135.885056 
	C191.865585,123.350060 190.638870,97.352341 171.888580,87.933945 
	C168.740356,86.352577 164.912949,85.857117 164.898956,80.971848 
	C164.894852,79.538971 162.919403,78.805923 161.437424,78.481483 
	C146.938965,75.307411 134.697281,79.425079 125.089058,90.560387 
	C116.161530,100.906822 115.608658,112.749123 120.529411,125.847382 
z"/>
<path fill="#000000" opacity="1.000000" stroke="none" 
	d="
M243.540268,70.381126 
	C243.970779,70.900932 244.290695,71.290100 244.198776,71.486435 
	C239.801132,80.878220 232.143188,87.147949 223.280472,94.422668 
	C222.627426,86.471931 221.431351,80.216476 221.693771,73.796722 
	C221.766632,72.014389 222.630554,70.893234 224.405869,70.902252 
	C230.696243,70.934189 236.916077,69.232986 243.540268,70.381126 
z"/>
<path fill="#000000" opacity="1.000000" stroke="none" 
	d="
M321.218445,71.931458 
	C328.211456,72.277199 334.828278,72.099617 342.618164,74.744835 
	C333.876495,83.599373 324.967407,89.716667 313.650879,92.704002 
	C311.242065,86.662086 311.714050,80.871849 311.776093,75.134262 
	C311.793610,73.518364 312.795868,72.839081 314.331848,72.694267 
	C316.479218,72.491798 318.618927,72.207695 321.218445,71.931458 
z"/>
<path fill="#000000" opacity="1.000000" stroke="none" 
	d="
M161.033905,102.791687 
	C165.472549,105.039948 167.614471,108.302849 167.204285,112.989365 
	C166.781693,117.817459 163.814819,120.759415 159.660324,122.668526 
	C157.395950,123.709076 155.010376,124.322136 152.456604,124.360794 
	C143.857803,124.490952 138.162170,120.134117 137.673843,112.931084 
	C137.102325,104.501289 143.071381,96.583229 150.740814,95.502800 
	C152.177414,95.300415 153.680008,95.198906 153.970184,96.846130 
	C154.652679,100.720413 157.735611,101.550697 161.033905,102.791687 
M157.596603,113.964394 
	C155.409958,112.817863 153.131760,111.814095 151.061417,110.486244 
	C148.812790,109.044083 147.338867,109.583305 146.253876,111.804672 
	C145.037231,114.295494 146.452637,115.837662 148.568787,116.300415 
	C151.751541,116.996429 155.181000,117.767525 157.596603,113.964394 
z"/>
</svg>